<!-- Generator: Adobe Illustrator 22.1.0, SVG Export Plug-In  -->
<svg version="1.1"
	 xmlns="http://www.w3.org/2000/svg" xmlns:xlink="http://www.w3.org/1999/xlink" xmlns:a="http://ns.adobe.com/AdobeSVGViewerExtensions/3.0/"
	 x="0px" y="0px" width="92.3px" height="92.3px" viewBox="0 0 92.3 92.3" style="enable-background:new 0 0 92.3 92.3;"
	 xml:space="preserve">
<style type="text/css">
	.st0{opacity:0.8;fill:#FFFFFF;}
	.st1{opacity:0;fill:#FFFFFF;}
</style>
<defs>
</defs>
<path class="st0" d="M92.3,45.4C91.9,19.9,70.9-0.4,45.4,0l0,0C19.9,0.4-0.4,21.4,0,46.9l22-0.3C21.8,33.2,32.5,22.2,45.8,22l0,0
	c13.3-0.2,24.3,10.4,24.5,23.8c0.2,13.3-10.4,24.3-23.8,24.5l0.3,22C72.4,91.9,92.7,70.9,92.3,45.4z"/>
<path class="st1" d="M0,46.9c0.4,25.5,21.4,45.8,46.9,45.4l0,0c25.5-0.4,45.8-21.4,45.4-46.9l-22,0.3c0.2,13.3-10.4,24.3-23.8,24.5
	l0,0C33.2,70.5,22.2,59.9,22,46.5C21.8,33.2,32.5,22.2,45.8,22L45.4,0C19.9,0.4-0.4,21.4,0,46.9z"/>
</svg>
