<!-- Generator: Adobe Illustrator 22.1.0, SVG Export Plug-In  -->
<svg version="1.1"
	 xmlns="http://www.w3.org/2000/svg" xmlns:xlink="http://www.w3.org/1999/xlink" xmlns:a="http://ns.adobe.com/AdobeSVGViewerExtensions/3.0/"
	 x="0px" y="0px" width="192.1px" height="192px" viewBox="0 0 192.1 192" style="enable-background:new 0 0 192.1 192;"
	 xml:space="preserve">
<style type="text/css">
	.st0{opacity:0.8;fill:#FFFFFF;}
	.st1{opacity:0;fill:#FFFFFF;}
</style>
<defs>
</defs>
<path class="st0" d="M3.8,122.6c14.7,50.9,67.9,80.4,118.8,65.7l0,0c50.9-14.7,80.4-67.9,65.7-118.8l-44,12.7
	c7.7,26.6-7.7,54.4-34.3,62.1l0,0c-26.6,7.7-54.4-7.7-62.1-34.3c-7.7-26.6,7.7-54.4,34.3-62.1l-12.7-44
	C18.5,18.4-10.9,71.6,3.8,122.6z"/>
<path class="st1" d="M142.5,12C96.1-13.7,37.7,3.2,12,49.6l0,0C-13.6,96,3.2,154.4,49.6,180l22.2-40.1C47.5,126.5,38.7,96,52.1,71.7
	l0,0C65.5,47.5,96,38.7,120.3,52.1c24.3,13.4,33.1,43.9,19.6,68.2l40.1,22.2C205.7,96.1,188.9,37.6,142.5,12z"/>
</svg>
