<!-- Generator: Adobe Illustrator 22.1.0, SVG Export Plug-In  -->
<svg version="1.1"
	 xmlns="http://www.w3.org/2000/svg" xmlns:xlink="http://www.w3.org/1999/xlink" xmlns:a="http://ns.adobe.com/AdobeSVGViewerExtensions/3.0/"
	 x="0px" y="0px" width="275px" height="275px" viewBox="0 0 275 275" style="enable-background:new 0 0 275 275;"
	 xml:space="preserve">
<style type="text/css">
	.st0{opacity:0.9;fill:#6638B6;}
	.st1{opacity:0;fill:#6638B6;}
</style>
<defs>
</defs>
<path class="st0" d="M4,170.2C22,243.9,96.5,289.1,170.2,271l0,0c73.7-18.1,118.9-92.5,100.8-166.2l-63.7,15.6
	c9.4,38.5-14.2,77.5-52.7,86.9l0,0c-38.5,9.4-77.5-14.2-86.9-52.7c-9.4-38.5,14.2-77.5,52.7-86.9L104.8,4C31.1,22-14.1,96.4,4,170.2
	z"/>
<path class="st1" d="M251,60c-42.8-62.7-128.3-78.8-191-36l0,0C-2.7,66.8-18.8,152.3,24,215l54.2-37C55.8,145.2,64.2,100.5,97,78.1
	l0,0c32.8-22.4,77.5-13.9,99.9,18.8c22.4,32.8,13.9,77.5-18.8,99.9l37,54.2C277.7,208.2,293.8,122.7,251,60z"/>
</svg>
