<!-- Generator: Adobe Illustrator 22.1.0, SVG Export Plug-In  -->
<svg version="1.1"
	 xmlns="http://www.w3.org/2000/svg" xmlns:xlink="http://www.w3.org/1999/xlink" xmlns:a="http://ns.adobe.com/AdobeSVGViewerExtensions/3.0/"
	 x="0px" y="0px" width="255.4px" height="30px" viewBox="0 0 255.4 30" style="enable-background:new 0 0 255.4 30;"
	 xml:space="preserve">
<style type="text/css">
	.st0{clip-path:url(#SVGID_5_);fill:#173B87;}
	.st1{clip-path:url(#SVGID_5_);fill:#838E98;}
	.st2{clip-path:url(#SVGID_6_);fill:url(#SVGID_7_);}
	.st3{clip-path:url(#SVGID_8_);fill:#003E6B;}
	.st4{clip-path:url(#SVGID_9_);fill:none;stroke:#003E6B;stroke-width:0.4;}
	.st5{fill:#003E6B;}
	.st6{clip-path:url(#SVGID_11_);fill:#173B87;}
	.st7{clip-path:url(#SVGID_11_);fill:#838E98;}
	.st8{clip-path:url(#SVGID_13_);fill:url(#SVGID_14_);}
	.st9{clip-path:url(#SVGID_16_);fill:#003E6B;}
	.st10{clip-path:url(#SVGID_18_);fill:none;stroke:#003E6B;stroke-width:0.4;}
</style>
<defs>
</defs>
<g>
	<g>
		<defs>
			<rect id="SVGID_4_" x="136.3" y="5.8" width="119" height="24.3"/>
		</defs>
		<clipPath id="SVGID_5_">
			<use xlink:href="#SVGID_4_"  style="overflow:visible;"/>
		</clipPath>
		<path class="st0" d="M152.3,15.9h3.9v0.5c-1.1,0.1-1.1,0.3-1.1,1.1v7c0,1.5,0.9,2.3,2.1,2.3c1.4,0,2.2-0.9,2.2-2.3v-6.8
			c0-0.8-0.3-1.2-1.2-1.3v-0.5h3.1v0.5c-1,0.1-1.2,0.4-1.2,1.3v6.4c0,2-0.9,3.2-3.1,3.2c-2.3,0-3.3-1.2-3.3-3.3v-6.5
			c0-0.8-0.1-1-1.1-1.1V15.9z"/>
		<path class="st0" d="M160.9,27v-0.5c0.8,0,1-0.3,1-0.8v-5.1c0-0.7-0.2-0.8-1.1-0.8v-0.5l2.4-0.1v1.6h0c0.4-0.9,1.1-1.7,2.2-1.7
			c1.3,0,2,0.9,2,2.3v4.3c0,0.5,0.2,0.8,1,0.8V27H166v-5.8c0-1.1-0.4-1.4-1-1.4c-0.9,0-1.7,1.1-1.7,2.7v3.1c0,0.5,0.3,0.8,1,0.8V27
			H160.9z"/>
		<path class="st0" d="M168.8,27v-0.5c0.8,0,1-0.3,1-0.8v-5.1c0-0.7-0.2-0.8-1-0.8v-0.5l2.4-0.1v6.6c0,0.5,0.3,0.8,1,0.8V27H168.8z
			 M171.2,16.8c0,0.6-0.3,1-0.8,1c-0.5,0-0.8-0.4-0.8-1c0-0.6,0.3-1,0.8-1C170.9,15.8,171.2,16.2,171.2,16.8"/>
		<path class="st0" d="M174.7,16.3v3h1.9v0.6h-1.9v5.7c0,0.7,0.2,1,0.7,1c0.5,0,0.9-0.3,0.9-2.1v-0.5h0.5v0.8c0,1.6-0.6,2.4-1.8,2.4
			c-1.1,0-1.7-0.7-1.7-2v-5.3h-1v-0.5c1.2-0.5,1.8-1,1.9-3.1H174.7z"/>
		<path class="st0" d="M179.1,22.5c0-2.1,0.6-2.9,1.5-2.9c0.9,0,1.3,0.8,1.3,2.9H179.1z M183.5,23.1c0-2.3-1.1-4-2.9-4
			c-1.8,0-3.1,1.7-3.1,4.1c0,2,1.3,4.1,3.3,4.1c1.8,0,2.6-1.4,2.8-2.8l-0.5-0.1c-0.2,1.1-0.7,2.3-2.1,2.3c-1.1,0-1.9-1.2-1.9-3.5
			H183.5z"/>
		<path class="st0" d="M185.9,23.2c0-2.5,0.6-3.5,1.5-3.5c1,0,1.6,1.2,1.6,3.5c0,2.8-0.9,3.5-1.7,3.5
			C186.4,26.7,185.9,25.7,185.9,23.2 M187.9,16.4c0.8,0,1,0.1,1,0.8v2.9l0,0c-0.3-0.6-0.9-1.1-1.6-1.1c-1.7,0-3,1.7-3,4.1
			c0,2.5,1.3,4,2.8,4c1,0,1.5-0.6,1.9-1.3h0V27l2.3-0.1v-0.5c-0.6,0-0.9-0.2-0.9-1.1v-9.5l-2.4,0.1V16.4z"/>
		<path class="st0" d="M191.7,27v-0.5c1-0.1,1.1-0.3,1.1-1.1v-7.9c0-0.8-0.2-1-1.1-1.1v-0.5h3.9v0.5c-1,0.1-1.2,0.3-1.2,1.1v3.4h3.5
			v-3.4c0-0.8-0.2-1-1.2-1.1v-0.5h3.9v0.5c-1,0.1-1.1,0.3-1.1,1.1v7.9c0,0.8,0.2,1,1.1,1.1V27h-3.9v-0.5c1-0.1,1.2-0.3,1.2-1.1v-3.9
			h-3.5v3.9c0,0.8,0.2,1,1.2,1.1V27H191.7z"/>
		<path class="st0" d="M202.4,22.5c0-2.1,0.6-2.9,1.5-2.9c0.9,0,1.3,0.8,1.3,2.9H202.4z M206.9,23.1c0-2.3-1.1-4-2.9-4
			c-1.8,0-3.1,1.7-3.1,4.1c0,2,1.3,4.1,3.3,4.1c1.8,0,2.6-1.4,2.7-2.8l-0.5-0.1c-0.2,1.1-0.7,2.3-2.1,2.3c-1.1,0-1.9-1.2-1.9-3.5
			H206.9z"/>
		<path class="st0" d="M211.1,23.8c0,1.8-0.7,2.8-1.6,2.8c-0.5,0-0.9-0.4-0.9-1.3c0-1.4,1.2-2,2.5-2.4V23.8z M213.3,24.8
			c0,1.2-0.2,1.5-0.5,1.5c-0.2,0-0.3-0.2-0.3-0.7v-4.5c0-1.2-0.7-2-2.5-2c-1.4,0-2.4,0.9-2.4,2c0,0.6,0.3,1,0.8,1
			c0.5,0,0.8-0.4,0.8-0.9c0-0.5-0.2-0.9-0.7-0.9c0.3-0.4,0.8-0.6,1.4-0.6c0.9,0,1.3,0.4,1.3,1.3v1.3c-1.4,0.5-3.9,1.3-3.9,3.1
			c0,1.1,0.7,1.8,2,1.8c1.1,0,1.6-0.5,2-1.3h0c0.1,0.9,0.5,1.3,1.3,1.3c1,0,1.3-0.7,1.3-2.4L213.3,24.8z"/>
		<path class="st0" d="M213.6,27v-0.5c0.8,0,1-0.3,1-0.8v-8.4c0-0.6-0.3-0.8-1.1-0.9v-0.5l2.5-0.1v9.9c0,0.5,0.3,0.8,1,0.8V27H213.6
			z"/>
		<path class="st0" d="M219.4,16.3v3h1.9v0.6h-1.9v5.7c0,0.7,0.2,1,0.7,1c0.5,0,0.9-0.3,0.9-2.1v-0.5h0.5v0.8c0,1.6-0.6,2.4-1.8,2.4
			c-1.1,0-1.7-0.7-1.7-2v-5.3h-1v-0.5c1.2-0.5,1.8-1,1.9-3.1H219.4z"/>
		<path class="st0" d="M221.5,27v-0.5c0.8,0,1-0.3,1-0.8v-8.4c0-0.7-0.2-0.8-1.1-0.8v-0.5l2.5-0.1v4.8h0c0.3-0.7,0.9-1.5,2-1.5
			c1.2,0,2,0.9,2,2.3v4.3c0,0.5,0.3,0.8,1,0.8V27h-2.4v-5.7c0-1.1-0.4-1.5-1-1.5c-0.8,0-1.7,1.1-1.7,2.6v3.2c0,0.5,0.3,0.8,1,0.8V27
			H221.5z"/>
		<path class="st0" d="M235,24.3c-0.1,1.5-0.9,2.9-2.6,2.9c-1.6,0-3.2-1.5-3.2-3.9c0-2,1.4-4.3,3.4-4.3c1.4,0,2.2,0.9,2.2,2.1
			c0,0.8-0.2,1.2-0.8,1.2c-0.5,0-0.8-0.4-0.8-1c0-0.7,0.2-1,0.7-1c0.1,0,0.2,0,0.2,0.1l0,0c-0.2-0.6-0.8-0.9-1.4-0.9
			c-1.2,0-2,1.2-2,3.5c0,2.7,0.8,3.5,1.8,3.5c1.3,0,1.7-1.2,1.9-2.3L235,24.3z"/>
		<path class="st0" d="M239.5,23.8c0,1.8-0.7,2.8-1.6,2.8c-0.5,0-0.9-0.4-0.9-1.3c0-1.4,1.2-2,2.5-2.5V23.8z M241.7,24.8
			c0,1.2-0.2,1.5-0.5,1.5c-0.2,0-0.3-0.2-0.3-0.7v-4.5c0-1.2-0.7-2-2.5-2c-1.4,0-2.5,0.9-2.5,2c0,0.7,0.3,1,0.8,1
			c0.5,0,0.8-0.4,0.8-0.9c0-0.5-0.2-0.9-0.7-0.9c0.3-0.4,0.8-0.6,1.4-0.6c0.9,0,1.3,0.4,1.3,1.3v1.3c-1.4,0.5-4,1.3-4,3.1
			c0,1.1,0.7,1.8,2,1.8c1.1,0,1.6-0.5,2-1.3h0c0.1,0.9,0.5,1.3,1.3,1.3c1,0,1.3-0.7,1.3-2.4L241.7,24.8z"/>
		<path class="st0" d="M242.4,27v-0.5c0.7,0,0.9-0.3,0.9-0.8v-4.4c0-1.1-0.2-1.5-1-1.5v-0.5l2.2-0.1v1.9h0c0.2-0.8,0.8-2,1.8-2
			c0.6,0,1.2,0.5,1.2,1.4c0,0.7-0.3,1.1-0.8,1.1c-0.4,0-0.7-0.2-0.7-1c0-0.4,0.2-0.8,0.7-0.8c-0.1-0.1-0.2-0.2-0.4-0.2
			c-1.1,0-1.6,2.4-1.6,3.8v2.3c0,0.5,0.3,0.8,1.3,0.8V27H242.4z"/>
		<path class="st0" d="M249.1,22.5c0-2.1,0.6-2.9,1.5-2.9c0.9,0,1.3,0.8,1.3,2.9H249.1z M253.6,23.1c0-2.4-1.1-4.1-2.9-4.1
			c-1.8,0-3.1,1.7-3.1,4.1c0,2,1.3,4.1,3.3,4.1c1.8,0,2.6-1.4,2.7-2.8l-0.5-0.1c-0.2,1.1-0.7,2.3-2.1,2.3c-1.1,0-1.9-1.2-1.9-3.5
			H253.6z"/>
		<path class="st0" d="M254.2,17.3c0.6,0,1,0.5,1,1c0,0.6-0.5,1-1,1c-0.6,0-1-0.5-1-1C253.1,17.8,253.6,17.3,254.2,17.3 M254.2,17.2
			c-0.7,0-1.2,0.5-1.2,1.2c0,0.7,0.5,1.2,1.2,1.2c0.7,0,1.2-0.5,1.2-1.2C255.4,17.7,254.8,17.2,254.2,17.2 M253.9,18.5h0.2
			c0.1,0,0.2,0,0.2,0.2c0,0.2,0,0.4,0.1,0.5h0.2c0-0.1-0.1-0.3-0.1-0.4c0-0.3-0.1-0.3-0.2-0.4v0c0.2,0,0.3-0.2,0.3-0.3
			c0-0.2-0.1-0.3-0.4-0.3h-0.6v1.4h0.2V18.5z M253.9,17.8h0.3c0.2,0,0.2,0.1,0.2,0.2c0,0.1-0.1,0.2-0.2,0.2h-0.3V17.8z"/>
		<path class="st0" d="M138.2,27L138.2,27L138.2,27C138.2,27,138.3,27,138.2,27C138.3,27,138.3,27,138.2,27c0.1,0,0.1,0,0.1,0
			c0,0,0,0,0,0c0,0,0,0,0,0c0,0,0,0,0,0c0,0,0,0,0,0c0,0,0,0,0,0c0,0,0,0,0,0c0,0,0,0,0,0c0,0,0,0,0,0c0,0,0,0,0,0c0,0,0,0,0,0
			c0,0,0,0,0,0c0,0,0,0,0.1,0c0,0,0,0,0,0c0,0,0,0,0.1,0c0,0,0,0,0,0c0,0,0,0,0.1,0c0,0,0,0,0,0c0,0,0,0,0.1,0c0,0,0,0,0,0
			c0,0,0,0,0.1,0c0,0,0,0,0,0c0,0,0,0,0.1,0c0,0,0,0,0,0c0,0,0,0,0.1,0c0,0,0,0,0,0c0,0,0,0,0.1,0c0,0,0,0,0,0c0,0,0,0,0.1,0
			c0,0,0,0,0,0c0,0,0,0,0.1-0.1c0,0,0,0,0,0c0,0,0,0,0.1-0.1c0,0,0,0,0,0c0,0,0,0,0.1-0.1c0,0,0,0,0,0c0,0,0,0,0.1-0.1c0,0,0,0,0,0
			c0,0,0,0,0.1-0.1c0,0,0,0,0,0c0,0,0-0.1,0.1-0.1c0,0,0,0,0-0.1c0,0,0-0.1,0.1-0.1c0,0,0,0,0-0.1c0,0,0-0.1,0.1-0.1c0,0,0,0,0-0.1
			c0,0,0-0.1,0.1-0.1c0,0,0,0,0-0.1c0,0,0-0.1,0-0.1c0,0,0-0.1,0-0.1c0,0,0-0.1,0-0.1c0,0,0-0.1,0-0.1c0,0,0-0.1,0-0.1
			c0,0,0-0.1,0-0.1c0,0,0-0.1,0-0.1c0,0,0-0.1,0-0.1c0,0,0-0.1,0-0.1c0,0,0-0.1,0-0.1c0,0,0-0.1,0-0.1c0-0.1,0-0.2,0.1-0.2
			c0.3-1.2,0.4-3.5,0.4-5.1v-10l-4.9,2.6V22c0,3.9,0.7,4.9,1.6,5c0,0,0,0,0,0L138.2,27z"/>
		<path class="st1" d="M139.4,28.1c1.9-0.3,3-2.4,3.3-3.4c0.4-1.4,0.5-3.2,0.5-5.3V8l-2.1,1.1l1.1,0.2v9.1c0,2.3-0.1,4.4-0.4,5.8
			c-0.5,1.9-1.5,2.7-2.2,3l-1.7-0.2c0,0,0,0,0,0c0.2,0.6,0.6,1,1.1,1.1L139.4,28.1z"/>
		<path class="st1" d="M139,28.1c0.2,0.5,0.6,0.9,1.1,1l0.4,0c2,0,3.3-2,3.8-3c0.7-1.5,1-3.7,1-6.8V6.9L143.2,8l1.1,0.2v10.6
			c0,2.6-0.1,4.9-0.7,6.6c-0.6,1.4-1.6,2.6-2.8,2.9l-1.4-0.2L139,28.1z"/>
		<path class="st1" d="M145.3,6.9l1.1,0.2v11.7c0,3.6-0.4,6-1.2,7.7c-0.7,1.5-2,2.5-3.2,2.8l-1.6-0.2l-0.4,0c0.4,0.6,1,1,1.7,1
			c1,0,1.8-0.4,2.5-0.9c2.4-1.6,3.1-5.3,3.1-10.2V5.8L145.3,6.9z"/>
	</g>
	<g>
		<defs>
			<path id="SVGID_3_" d="M9.1,17.6h5.1c0-3.1,2.5-5.6,5.6-5.6c3.1,0,5.6,2.5,5.6,5.6h5.1c0-5.9-4.8-10.7-10.7-10.7
				S9.1,11.7,9.1,17.6"/>
		</defs>
		<clipPath id="SVGID_6_">
			<use xlink:href="#SVGID_3_"  style="overflow:visible;"/>
		</clipPath>
		
			<linearGradient id="SVGID_7_" gradientUnits="userSpaceOnUse" x1="-148.2113" y1="439.2286" x2="-147.2113" y2="439.2286" gradientTransform="matrix(19.5579 -7.1185 -7.1185 -19.5579 6033.9937 7551.6763)">
			<stop  offset="0" style="stop-color:#46C0EA"/>
			<stop  offset="0.1474" style="stop-color:#5099D3"/>
			<stop  offset="0.1799" style="stop-color:#5691CD"/>
			<stop  offset="0.2896" style="stop-color:#637BBC"/>
			<stop  offset="0.3887" style="stop-color:#6A6BB1"/>
			<stop  offset="0.473" style="stop-color:#6E60AA"/>
			<stop  offset="0.5323" style="stop-color:#6F5DA8"/>
			<stop  offset="0.5951" style="stop-color:#725DA8"/>
			<stop  offset="0.6606" style="stop-color:#7C5CA6"/>
			<stop  offset="0.7274" style="stop-color:#8C5CA5"/>
			<stop  offset="0.795" style="stop-color:#A25BA2"/>
			<stop  offset="0.8627" style="stop-color:#BE5A9F"/>
			<stop  offset="0.9001" style="stop-color:#D0589D"/>
			<stop  offset="1" style="stop-color:#E7679A"/>
		</linearGradient>
		<polygon class="st2" points="5.7,8.2 28.1,0 34,16.4 11.6,24.5 		"/>
	</g>
	<g>
		<defs>
			<rect id="SVGID_2_" y="5.8" width="105" height="24.3"/>
		</defs>
		<clipPath id="SVGID_8_">
			<use xlink:href="#SVGID_2_"  style="overflow:visible;"/>
		</clipPath>
		<path class="st3" d="M14.2,17.6c0,3.1,2.5,5.6,5.6,5.6v5.1c-5.9,0-10.7-4.8-10.7-10.7H14.2z"/>
		<path class="st3" d="M44.9,15.5c-0.9,1.4-2.4,2.3-4.2,2.3c-2.8,0-5.3-1.9-5.3-4.9c0-3,2.4-4.9,5.3-4.9c1.8,0,3.2,0.9,4.2,2.3
			l-2.6,1.6c-0.3-0.6-1-0.9-1.7-0.9c-1.1,0-2,0.9-2,2c0,1.1,0.9,2,2,2c0.7,0,1.3-0.3,1.6-0.9L44.9,15.5z"/>
		<path class="st3" d="M53.5,8.2h3.2v9.4h-3.2v-1.1c-0.6,0.8-1.6,1.3-2.6,1.3c-2.3,0-4.6-1.9-4.6-4.9c0-3.1,2.3-4.9,4.6-4.9
			c1,0,2,0.4,2.6,1.3V8.2z M51.5,14.9c1.1,0,2-0.9,2-2c0-1.1-0.9-2-2-2c-1.1,0-2,0.9-2,2C49.5,14,50.4,14.9,51.5,14.9"/>
		<path class="st3" d="M62.4,17.6h-3.2V8.2h3.2v1.5C62.7,8.5,64.2,8,65,8c2.5,0,3.8,1.7,3.8,4.7v5h-3.2v-4.9c0-1.3-0.9-1.6-1.5-1.6
			c-0.7,0-1.7,0.4-1.7,1.6V17.6z"/>
		<path class="st3" d="M70.4,12.9c0-3,2.4-4.9,5-4.9c2.7,0,5.1,1.9,5.1,4.9c0,3-2.4,4.9-5.1,4.9C72.7,17.8,70.4,15.9,70.4,12.9
			 M75.4,14.9c1.1,0,2-0.9,2-2c0-1.1-0.9-2-2-2c-1.1,0-2,0.9-2,2C73.4,14,74.3,14.9,75.4,14.9"/>
		<polygon class="st3" points="95,20.7 98.4,20.7 103.6,8.2 100.1,8.2 98.4,12.8 96.5,8.2 93,8.2 96.7,16.4 		"/>
		<path class="st3" d="M85.4,20.7v-3.9c0.6,0.7,1.5,1.1,2.6,1.1c2.3,0,4.6-1.9,4.6-4.9C92.6,9.8,90.3,8,88,8c-1,0-2.2,0.5-2.8,1.6
			V8.2h-3v12.5H85.4z M87.3,10.9c1.1,0,2,0.9,2,2c0,1.1-0.9,2-2,2c-1.1,0-2-0.8-2-1.9C85.4,11.9,86.3,10.9,87.3,10.9"/>
		<polygon class="st3" points="41,28.2 42.3,28.2 42.3,21.4 41,21.4 41,24.2 38.1,24.2 38.1,21.4 36.8,21.4 36.8,28.2 38.1,28.2 
			38.1,25.3 41,25.3 		"/>
		<polygon class="st3" points="45.1,28.2 49.6,28.2 49.6,27.1 46.4,27.1 46.4,25.4 49.1,25.4 49.1,24.3 46.4,24.3 46.4,22.4 
			49.5,22.4 49.5,21.4 45.1,21.4 		"/>
		<path class="st3" d="M55.2,21.4h-1.4l-2.6,6.8h1.4l0.7-1.7h2.7l0.7,1.7h1.3L55.2,21.4z M53.6,25.5L53.6,25.5l0.9-2.7l0.9,2.7H53.6
			z"/>
		<polygon class="st3" points="59.9,28.2 63.9,28.2 63.9,27.1 61.1,27.1 61.1,21.4 59.9,21.4 		"/>
		<polygon class="st3" points="66.9,28.2 68.1,28.2 68.1,22.5 70.1,22.5 70.1,21.4 64.8,21.4 64.8,22.5 66.9,22.5 		"/>
		<polygon class="st3" points="76.6,28.2 77.8,28.2 77.8,21.4 76.6,21.4 76.6,24.2 73.7,24.2 73.7,21.4 72.4,21.4 72.4,28.2 
			73.7,28.2 73.7,25.3 76.6,25.3 		"/>
	</g>
	<g>
		<defs>
			<rect id="SVGID_1_" y="5.8" width="255.4" height="24.3"/>
		</defs>
		<clipPath id="SVGID_9_">
			<use xlink:href="#SVGID_1_"  style="overflow:visible;"/>
		</clipPath>
		<line class="st4" x1="120.1" y1="8.8" x2="120.1" y2="30"/>
	</g>
	<g>
		<path class="st5" d="M79.8,21.4c0.7,0,1.2,0.6,1.2,1.2c0,0.7-0.5,1.2-1.2,1.2c-0.7,0-1.2-0.6-1.2-1.2
			C78.6,21.9,79.2,21.4,79.8,21.4z M79.8,23.6c0.6,0,1-0.5,1-1c0-0.6-0.5-1-1-1s-1,0.5-1,1C78.8,23.2,79.3,23.6,79.8,23.6z M80,22.8
			c0.2,0,0.3-0.2,0.3-0.4c0-0.2-0.1-0.4-0.4-0.4h-0.5v1.2h0.2v-0.4h0.1l0.3,0.4h0.2L80,22.8z M79.9,22.2c0.1,0,0.2,0.1,0.2,0.2
			c0,0.1-0.1,0.2-0.2,0.2h-0.3v-0.4H79.9z"/>
	</g>
</g>
</svg>
