<!-- Generator: Adobe Illustrator 22.1.0, SVG Export Plug-In  -->
<svg version="1.1"
	 xmlns="http://www.w3.org/2000/svg" xmlns:xlink="http://www.w3.org/1999/xlink" xmlns:a="http://ns.adobe.com/AdobeSVGViewerExtensions/3.0/"
	 x="0px" y="0px" width="27.9px" height="29.5px" viewBox="0 0 27.9 29.5" style="enable-background:new 0 0 27.9 29.5;"
	 xml:space="preserve">
<style type="text/css">
	.st0{fill:#FFFFFF;}
	.st1{fill:#00A8F7;}
</style>
<defs>
</defs>
<g>
	<polygon class="st0" points="2.4,1.1 5,0 5.6,1.4 7.2,0.8 9.2,5.9 12,4.8 12.6,6.3 17,4.6 17.5,5.8 20.2,4.7 20.7,6 22.3,5.3 
		22.8,6.6 24.2,6.1 27.7,15 26.3,15.6 27.9,19.5 26.4,20.1 27.9,23.8 13.6,29.5 12.1,25.7 10.9,26.2 9.8,23.7 8.1,24.4 7.2,21.9 
		5.6,22.5 4.7,20 3.2,20.6 2.6,19.1 1.1,19.7 0,17 1.5,16.4 1.1,15.3 4.1,14.1 4.5,15.2 6.2,14.5 1.6,3 2.9,2.5 	"/>
	<g>
		<polygon class="st1" points="6.8,15.9 7.6,18.1 8.9,17.6 2.9,2.5 1.6,3 6.2,14.5 4.5,15.2 5.1,16.6 		"/>
		<rect x="1.2" y="14.6" transform="matrix(0.9293 -0.3694 0.3694 0.9293 -5.4344 2.1135)" class="st1" width="3.2" height="1.2"/>
		<rect x="0.5" y="16.6" transform="matrix(0.9293 -0.3694 0.3694 0.9293 -6.5846 1.7638)" class="st1" width="1.7" height="2.9"/>
		<rect x="2.9" y="18.8" transform="matrix(0.9293 -0.3694 0.3694 0.9293 -6.9766 2.7294)" class="st1" width="1.5" height="1.6"/>
		<rect x="5.1" y="19.6" transform="matrix(0.9293 -0.3694 0.3694 0.9293 -7.3292 3.6662)" class="st1" width="1.6" height="2.7"/>
		<rect x="7.6" y="21.5" transform="matrix(0.9293 -0.3694 0.3694 0.9293 -7.8216 4.7553)" class="st1" width="1.8" height="2.7"/>
		<rect x="10.3" y="23.4" transform="matrix(0.9293 -0.3694 0.3694 0.9293 -8.3573 5.8017)" class="st1" width="1.3" height="2.7"/>
		<polygon class="st1" points="25.1,20.6 26,22.9 14.4,27.5 13.5,25.2 12.1,25.7 13.6,29.5 26.5,24.4 26.5,24.4 27.9,23.8 
			26.4,20.1 		"/>
		
			<rect x="25.6" y="15.8" transform="matrix(0.9293 -0.3694 0.3694 0.9293 -4.7261 11.0078)" class="st1" width="1.7" height="4.2"/>
		<rect x="24.5" y="6" transform="matrix(0.9293 -0.3694 0.3694 0.9293 -2.2179 10.0912)" class="st1" width="1.5" height="9.6"/>
		<rect x="21" y="5.6" transform="matrix(0.9293 -0.3694 0.3694 0.9293 -0.7791 8.4857)" class="st1" width="1.6" height="1.4"/>
		<polygon class="st1" points="17.8,6.7 19.5,10.9 20.9,10.3 19.4,6.5 20.7,6 20.2,4.7 17.5,5.8 17.8,6.7 		"/>
		<polygon class="st1" points="13,7.2 14.6,11.2 16,10.7 14.5,7 17.5,5.8 17,4.6 12.6,6.3 13,7.2 		"/>
		<polygon class="st1" points="11.8,12.3 9.8,7.4 12.6,6.3 12,4.8 9.2,5.9 7.2,0.8 5.6,1.4 10.2,13 		"/>
		<rect x="2.5" y="0.5" transform="matrix(0.9293 -0.3694 0.3694 0.9293 -0.1775 1.5511)" class="st1" width="2.9" height="1.5"/>
	</g>
</g>
</svg>
