<!-- Generator: Adobe Illustrator 22.1.0, SVG Export Plug-In  -->
<svg version="1.1"
	 xmlns="http://www.w3.org/2000/svg" xmlns:xlink="http://www.w3.org/1999/xlink" xmlns:a="http://ns.adobe.com/AdobeSVGViewerExtensions/3.0/"
	 x="0px" y="0px" width="233.9px" height="233.9px" viewBox="0 0 233.9 233.9" style="enable-background:new 0 0 233.9 233.9;"
	 xml:space="preserve">
<style type="text/css">
	.st0{fill:#D0D0CE;}
	.st1{opacity:0;fill:#D0D0CE;}
</style>
<defs>
</defs>
<path class="st0" d="M228.4,81.5C208.8,20,143.1-14,81.5,5.5l0,0C20,25.1-14,90.9,5.5,152.4l53.2-16.9
	c-10.2-32.2,7.6-66.5,39.7-76.8l0,0c32.2-10.2,66.5,7.6,76.8,39.7c10.2,32.2-7.6,66.5-39.7,76.8l16.9,53.2
	C213.9,208.8,248,143.1,228.4,81.5z"/>
<path class="st1" d="M63.2,220.8c57.4,29.7,127.9,7.2,157.6-50.1l0,0c29.7-57.4,7.2-127.9-50.1-157.6l-25.6,49.6
	c30,15.5,41.7,52.4,26.2,82.4l0,0c-15.5,30-52.4,41.7-82.4,26.2c-30-15.5-41.7-52.4-26.2-82.4L13.1,63.2
	C-16.6,120.6,5.9,191.1,63.2,220.8z"/>
</svg>
