<!-- Generator: Adobe Illustrator 22.1.0, SVG Export Plug-In  -->
<svg version="1.1"
	 xmlns="http://www.w3.org/2000/svg" xmlns:xlink="http://www.w3.org/1999/xlink" xmlns:a="http://ns.adobe.com/AdobeSVGViewerExtensions/3.0/"
	 x="0px" y="0px" width="497.7px" height="497.7px" viewBox="0 0 497.7 497.7" style="enable-background:new 0 0 497.7 497.7;"
	 xml:space="preserve">
<style type="text/css">
	.st0{opacity:0.9;fill:#003C71;}
	.st1{opacity:0;fill:#003C71;}
</style>
<defs>
</defs>
<path class="st0" d="M13,328.1c43.8,130.2,184.9,200.3,315.1,156.5l0,0c130.2-43.8,200.3-184.9,156.5-315.1l-112.5,37.8
	c22.9,68.1-13.7,141.8-81.8,164.7l0,0c-68.1,22.9-141.8-13.7-164.7-81.8c-22.9-68.1,13.7-141.8,81.8-164.7L169.6,13
	C39.3,56.8-30.7,197.9,13,328.1z"/>
<path class="st1" d="M494.8,211.3C474.1,75.5,347.2-17.8,211.3,2.9l0,0C75.5,23.6-17.8,150.5,2.9,286.3l117.4-17.9
	c-10.8-71,37.9-137.4,108.9-148.2l0,0c71-10.8,137.4,37.9,148.2,109c10.8,71-37.9,137.4-108.9,148.2l17.9,117.4
	C422.2,474,515.5,347.1,494.8,211.3z"/>
</svg>
