<!-- Generator: Adobe Illustrator 22.1.0, SVG Export Plug-In  -->
<svg version="1.1"
	 xmlns="http://www.w3.org/2000/svg" xmlns:xlink="http://www.w3.org/1999/xlink" xmlns:a="http://ns.adobe.com/AdobeSVGViewerExtensions/3.0/"
	 x="0px" y="0px" width="405.6px" height="405.6px" viewBox="0 0 405.6 405.6" style="enable-background:new 0 0 405.6 405.6;"
	 xml:space="preserve">
<style type="text/css">
	.st0{opacity:0.9;fill:#00A3E1;}
	.st1{opacity:0;fill:#00A3E1;}
</style>
<defs>
</defs>
<path class="st0" d="M391.9,129.8C351.6,25.3,234.3-26.7,129.8,13.6l0,0C25.3,53.9-26.7,171.3,13.6,275.8l90.3-34.8
	c-21.1-54.6,6.1-116,60.7-137l0,0c54.6-21.1,116,6.1,137,60.7c21.1,54.6-6.1,116-60.7,137l34.8,90.3
	C380.2,351.6,432.2,234.3,391.9,129.8z"/>
<path class="st1" d="M17.4,120.6C-27.9,223,18.3,342.8,120.6,388.1l0,0c102.4,45.4,222.1-0.8,267.5-103.2l-88.5-39.2
	c-23.7,53.5-86.3,77.7-139.8,53.9l0,0c-53.5-23.7-77.7-86.3-53.9-139.8c23.7-53.5,86.3-77.7,139.8-53.9l39.2-88.5
	C182.6-27.9,62.8,18.3,17.4,120.6z"/>
</svg>
