<!-- Generator: Adobe Illustrator 22.1.0, SVG Export Plug-In  -->
<svg version="1.1"
	 xmlns="http://www.w3.org/2000/svg" xmlns:xlink="http://www.w3.org/1999/xlink" xmlns:a="http://ns.adobe.com/AdobeSVGViewerExtensions/3.0/"
	 x="0px" y="0px" width="324.9px" height="324.9px" viewBox="0 0 324.9 324.9" style="enable-background:new 0 0 324.9 324.9;"
	 xml:space="preserve">
<style type="text/css">
	.st0{opacity:0.9;fill:#D539B5;}
	.st1{opacity:0;fill:#D539B5;}
</style>
<defs>
</defs>
<path class="st0" d="M198.5,4.1C111-15.8,24,39,4.1,126.4l0,0C-15.8,213.9,39,300.9,126.4,320.9l17.2-75.6
	c-45.7-10.4-74.4-55.9-64-101.6l0,0c10.4-45.7,55.9-74.4,101.6-64c45.7,10.4,74.4,55.9,64,101.6l75.6,17.2
	C340.8,111,286,24,198.5,4.1z"/>
<path class="st1" d="M249,299.9c75.9-47.8,98.7-148.1,51-224l0,0C252.2,0,151.9-22.8,76,25l41.3,65.6c39.7-25,92.1-13,117.1,26.6
	l0,0c25,39.7,13,92.1-26.6,117.1c-39.7,25-92.1,13-117.1-26.6L25,249C72.8,324.9,173,347.7,249,299.9z"/>
</svg>
